# xmcd
# 
# Track frame offsets:
#     150
#     20025
#     41625
#     59988
#     79013
#     99013
#     118488
#     137800
#     153788
#     174175
#     194300
#     215888
# 
# Disc length: 3162
# 
# Revision: 3
# Processed by: cddbd v1.5.2PL0 Copyright (c) Steve Scherf et al.
# Submitted via: fre:ac v1.0.31
# 
DISCID=aa0c580c
DTITLE=Various Artist - 酒後的心聲
DYEAR=1992
DGENRE=POP
TTITLE0=江蕙 - 酒後的心聲
TTITLE1=江蕙;施文彬 - 傷心到何時 (feat. 施文彬)
TTITLE2=江蕙 - 藝界人生
TTITLE3=江蕙 - 愛你的阮的心
TTITLE4=江蕙 - 感情路
TTITLE5=江蕙 - 風醉雨也醉
TTITLE6=江蕙 - 返來阮身邊
TTITLE7=江蕙 - 落雨的暗暝
TTITLE8=江蕙 - 心愛你叨位去
TTITLE9=江蕙 - 緣分
TTITLE10=江蕙 - 只好放你行
TTITLE11=江蕙 - 有緣無份
EXTD=
EXTT0=
EXTT1=
EXTT2=
EXTT3=
EXTT4=
EXTT5=
EXTT6=
EXTT7=
EXTT8=
EXTT9=
EXTT10=
EXTT11=
PLAYORDER=
